<?xml version="1.0" encoding="utf-8"?>
<!-- Generator: Adobe Illustrator 25.0.1, SVG Export Plug-In . SVG Version: 6.00 Build 0)  -->
<svg version="1.0" id="Layer_1" xmlns="http://www.w3.org/2000/svg" xmlns:xlink="http://www.w3.org/1999/xlink" x="0px" y="0px"
	 viewBox="50 140 782 283" style="enable-background:new 0 0 882 563;" xml:space="preserve">
<style type="text/css">
	.st0{fill:none;}
</style>
<path fill="var(--text-color)" d="M96.8,180.5c11.4-4.5,25.5,2.9,28.3,14.8c3.9,12.7-6.8,26.8-19.9,27.1c-11.6,0.8-22.5-9.2-22.6-20.9
	C82.3,192.2,88,183.7,96.8,180.5 M150.2,180.6c11.2-4.6,25.1,2.3,28.3,13.9c3.8,11.3-3.8,24.6-15.4,27.3
	c-11.1,3.2-23.5-4.5-26.1-15.6C134,196,140.2,184.2,150.2,180.6 M205.1,180.3c12.9-4.7,28.5,6.1,28.1,19.9
	c1.2,13.3-12.8,24.9-25.7,21.8c-9.1-2-16-9.5-17.2-18.8C189.2,193,195.4,183.5,205.1,180.3 M319.6,182.1c19.1,0.1,38.1-0.1,57.2,0
	c14.5,0.3,28,7.3,36.6,19c11.6,15.8,11.7,39,0.2,54.8c-8.2,11.8-22.5,18.9-36.8,19.1c-10.9,0.1-21.8,0.1-32.7,0
	c-0.3,17.7,0,35.4-0.1,53.1c-8.1,0-16.3,0-24.4,0C319.6,279.4,319.6,230.7,319.6,182.1 M344,205.6c0.2,15.3,0,30.7,0,46
	c11.2-0.2,22.4,0.2,33.6-0.2c12.2-0.8,21.2-13.4,19.7-25.2c-0.9-10.5-9.8-20.1-20.5-20.6C365.9,205.4,354.9,205.6,344,205.6
	 M455.2,238.8c7.5-12.2,23.2-17.8,36.8-13.5c-0.1,6.9-0.1,13.9,0,20.8c-6.2-0.8-12.6-1.6-18.7,0c-10.8,3.4-18.2,13.5-18.1,24.9
	c-0.1,19,0,38,0,57c-7.9,0.1-15.8,0.1-23.7,0c0-31.6,0-63.1,0-94.7c0.1-2.6,0.3-5.1,0.8-7.6c7.2,0.3,14.4-0.1,21.6,0.2
	C456.7,229.4,454.7,234.6,455.2,238.8 M535.8,224.5c15.2-2.2,31.5,1.9,43.2,12.1c16.4,13.9,22,38.2,15.1,58.3
	c-5.1,15.2-17,27.2-32.2,32.3c-8.4,3-17.5,3-26.2,2.2c-14.6-2.1-27.6-10.3-35.7-22.5c-13.3-20-11.3-48.9,5.3-66.4
	C513.1,231.8,524.2,226.3,535.8,224.5 M540.9,246.4c-6.2,0.6-12,3.2-16.7,7.4c-12.6,11.2-13.4,32.9-1.6,45
	c9.2,10.1,25.6,12,37.1,4.8c15.3-9,18.8-31.7,8.1-45.5C561.5,249.7,551.3,245.3,540.9,246.4 M708.7,243c16-20.3,48-25.3,69.3-10.5
	c16.2,10.7,23.4,31.2,21,50c-26.3,0.1-52.6,0-78.9,0.1c1.6,10.4,7.6,20.9,18.1,24.4c13,4.8,31.7,2,37-12.5h23.1
	c-2.1,10.6-8.2,20.5-17.2,26.6c-12,8.6-27.6,10.2-41.9,8c-13.1-2.6-24.7-10.2-32.4-21.1C693.2,289.1,693.8,261.1,708.7,243
	 M742.5,243.7c-10.8,1.8-18.5,11-21.5,21c17.8,0,35.5,0,53.2,0C772.8,249.8,756.5,240.1,742.5,243.7 M594.7,225.9
	c8.1-0.1,16.3,0.1,24.4-0.2c10.1,23.4,18.4,47.5,28.1,71.1c8.9-23.7,18-47.3,27.2-70.9c8.5,0,17,0,25.5,0
	c-14.2,34.1-28.6,68-42.6,102.1c-6.7,0.2-13.5,0.1-20.2,0c-11.3-27.4-23-54.7-34.4-82C599.9,239.3,596.6,232.8,594.7,225.9
	 M100.8,233.2c12.2-2.2,24.6,8,25,20.4c0.7,11-8.4,21.5-19.4,22.4c-11.5,1.5-23-7.9-23.7-19.5C81.4,245.5,89.9,234.7,100.8,233.2
	 M150.3,234.4c11-4.7,24.8,2.2,28.1,13.6c3.7,10.6-2.6,23.3-13.2,26.9c-11.1,4.3-24.8-2.5-27.9-14C133.6,250.5,140,238,150.3,234.4
	 M204,234.5c12.9-5.9,29.3,5,29.2,19.1c1.2,11.9-9.5,22.7-21.2,22.6c-10.2,0.1-19-7-21.2-16.9C188.2,249.2,194.3,238.1,204,234.5
	 M98.3,287.7c11.1-3.4,23.9,3.9,26.7,15.1c4.1,12.6-6.8,27.3-20,27c-11.3,1.1-21.8-8.8-22.3-19.9C82,299.7,88.5,290.4,98.3,287.7
	 M151.8,287.7c11.7-3.8,25.3,4.4,27.3,16.6c2.9,12.4-7.7,26-20.6,25.6c-13.1,1.1-24.7-12.5-21.9-25.3
	C138.2,296.6,144.1,290.1,151.8,287.7 M208,287.2c12.1-2.5,25.2,7.4,25.2,19.9c1.4,11.9-9.3,23.4-21.3,22.8
	c-11,0.7-21-8.9-21.6-19.8C189.2,299.4,197.4,288.9,208,287.2 M98.4,341.4c11.2-3.2,23.7,4,26.6,15.3c3.6,11.7-5.1,25-17,26.8
	c-11.2,2.3-23.2-5.9-25-17.1C80.7,355.6,88,344.2,98.4,341.4L98.4,341.4z"/>

</svg>
