<?xml version="1.0" encoding="UTF-8"?>
<!-- Generator: Adobe Illustrator 27.8.1, SVG Export Plug-In . SVG Version: 6.00 Build 0)  -->
<svg xmlns="http://www.w3.org/2000/svg" xmlns:xlink="http://www.w3.org/1999/xlink" version="1.1" id="Art" x="0px" y="0px" viewBox="0 0 3000 1252" style="enable-background:new 0 0 3000 1252;" xml:space="preserve">
<style type="text/css">
	.st0{fill:currentColor;}
</style>
<g>
	<path class="st0" d="M383.9,1009.6l241.9,241.9l241.9-241.9c-75.9-33-158.3-50.2-241.9-50.2C542.1,959.4,459.8,976.6,383.9,1009.6z   "></path>
	<path class="st0" d="M0,625.7l222.5,222.5c26.7,26.7,70,26.7,96.7,0l268-268c21.3-21.3,55.8-21.3,77.1,0l268,268   c26.7,26.7,70,26.7,96.7,0l222.4-222.5L625.7,0L0,625.7z"></path>
	<path class="st0" d="M2492.8,158.3c-47.1,33-107.2,50.6-175.7,54.1v246.2c140-5.6,212-54.3,212-54.3v777.3h262.4V69.8h-0.3   C2692.7,69.8,2573.5,101.8,2492.8,158.3z"></path>
	<path class="st0" d="M2281.7,432.1c0-106.9-37.8-197.9-109.2-263.1c-71.2-65-171.2-99.3-289.3-99.3h-528.5v677.9v43.9v390.1h272.7   V788.8H1752l268.6,392.9h321.3l-294-417.1C2195.3,716.5,2281.7,598.9,2281.7,432.1z M1967.7,523.5   c-86.9,68.9-242.4-31.4-340.3,167.7c0-72.9,0-387.2,0-387.2h233c93.6,0,147.2,46.5,147.2,127.5   C2007.7,471,1994.5,502.3,1967.7,523.5z"></path>
</g>
</svg>
