<?xml version="1.0" encoding="utf-8"?>
<!-- Generator: Adobe Illustrator 26.0.3, SVG Export Plug-In . SVG Version: 6.00 Build 0)  -->
<svg version="1.0"
	 id="svg1568" sodipodi:docname="wow telecom.svg" xmlns:cc="http://creativecommons.org/ns#" xmlns:dc="http://purl.org/dc/elements/1.1/" xmlns:inkscape="http://www.inkscape.org/namespaces/inkscape" xmlns:rdf="http://www.w3.org/1999/02/22-rdf-syntax-ns#" xmlns:sodipodi="http://sodipodi.sourceforge.net/DTD/sodipodi-0.dtd" xmlns:svg="http://www.w3.org/2000/svg"
	 xmlns="http://www.w3.org/2000/svg" xmlns:xlink="http://www.w3.org/1999/xlink" x="0px" y="0px" viewBox="45 80 350 150"
	 style="enable-background:new 0 0 444 314.5;" xml:space="preserve">
<style type="text/css">
	.st0{fill:#C52024;}
	.st1{fill:#E23F23;}
	.st2{fill:#F15121;}
	.st3{fill:#D42F23;}
	.st4{fill:#00ADEF;}
	.st5{fill:#2184C4;}
	.st6{fill:#306FB2;}
	.st7{fill:#0F9ADA;}
</style>
<g id="layer1" transform="translate(104.77115,30.322166)" inkscape:groupmode="layer" inkscape:label="Layer 1">
	<g id="g1771" transform="translate(0.49999821,-0.4999934)">
		<path id="path1105" inkscape:connector-curvature="0" fill=#C52024 d="M-13.7,170.2h-13.7l-26.3-85.8h13.7L-13.7,170.2z"/>
		<path id="path1109" inkscape:connector-curvature="0" class="st1" d="M39,170.2H25.3L-1,84.3h13.7L39,170.2z"/>
		<path id="path1113" inkscape:connector-curvature="0" class="st2" d="M25.4,170.2h13.7l26.3-85.8H51.7L25.4,170.2z"/>
		<path id="path1117" inkscape:connector-curvature="0" class="st3" d="M-27.4,170.2h13.7l26.3-85.8H-1L-27.4,170.2z"/>
		<path id="path1121" inkscape:connector-curvature="0" class="st4" d="M180.3,170.2h-13.7l-26.3-85.8H154L180.3,170.2z"/>
		<path id="path1125" inkscape:connector-curvature="0" class="st5" d="M233.1,170.2h-13.7L193,84.3h13.7L233.1,170.2z"/>
		<path id="path1129" inkscape:connector-curvature="0" class="st6" d="M219.5,170.2h13.7l26.3-85.8h-13.7L219.5,170.2z"/>
		<path id="path1133" inkscape:connector-curvature="0" class="st6" d="M268.9,144.2l18.4-59.8h-13.7l-18.4,59.8H268.9z"/>
		<path id="path1137" inkscape:connector-curvature="0" class="st6" d="M251.2,157.3l-3.9,12.8H261l4-12.9L251.2,157.3z"/>
		<path id="path1141" inkscape:connector-curvature="0" class="st7" d="M166.7,170.2h13.7l26.3-85.8H193L166.7,170.2z"/>
		<path id="path1153" inkscape:connector-curvature="0" class="st4" d="M146.6,120.7c-0.7-4.9-2.3-9.6-4.6-13.9
			c-0.1-0.2-0.2-0.3-0.3-0.5c-5.5-10.1-14.8-17.9-26-21.3l-3.8,12.3h0h0l0,0c0.7,0.2,1.4,0.5,2.1,0.7c0.3,0.1,0.5,0.2,0.8,0.3
			c0.5,0.2,1,0.4,1.5,0.7c0.3,0.1,0.6,0.3,0.9,0.5c0.4,0.2,0.9,0.5,1.3,0.7c0.3,0.2,0.6,0.4,0.9,0.6c0.4,0.3,0.8,0.5,1.2,0.8
			c0.3,0.2,0.6,0.4,0.9,0.6c0.4,0.3,0.7,0.6,1.1,0.8c0.3,0.2,0.6,0.5,0.8,0.7c0.3,0.3,0.7,0.6,1,0.9c0.3,0.3,0.5,0.5,0.8,0.8
			c0.3,0.3,0.6,0.7,0.9,1c0.2,0.3,0.5,0.6,0.7,0.8c0.3,0.3,0.6,0.7,0.8,1.1c0.2,0.3,0.4,0.6,0.7,0.9c0.3,0.4,0.5,0.7,0.8,1.1
			c0.2,0.3,0.4,0.6,0.6,0.9c0.2,0.4,0.5,0.8,0.7,1.2c0.2,0.3,0.4,0.7,0.5,1c0.2,0.4,0.4,0.8,0.6,1.3c0.1,0.3,0.3,0.7,0.4,1
			c0.2,0.4,0.3,0.9,0.5,1.4c0.1,0.3,0.2,0.7,0.3,1c0.1,0.5,0.3,1,0.4,1.5c0.1,0.3,0.2,0.7,0.3,1c0.1,0.6,0.2,1.1,0.3,1.7
			c0,0.3,0.1,0.6,0.1,0.8c0.1,0.9,0.2,1.7,0.2,2.6c0,0.5,0,1.1,0,1.6c0,0.5,0,1.1,0,1.6c0,0.8-0.1,1.6-0.2,2.4
			c0,0.2-0.1,0.5-0.1,0.7c-0.1,0.6-0.2,1.2-0.3,1.8c0,0.2-0.1,0.4-0.1,0.6c-0.2,0.7-0.3,1.4-0.6,2.1l0,0l0,0c0,0,0,0.1,0,0.1
			c-0.1,0.2-0.1,0.3-0.2,0.5c-0.2,0.6-0.4,1.2-0.6,1.7c-0.1,0.3-0.2,0.5-0.3,0.8c-0.2,0.5-0.4,0.9-0.6,1.4c-0.1,0.3-0.3,0.5-0.4,0.8
			c-0.2,0.5-0.5,0.9-0.8,1.4c-0.1,0.2-0.3,0.5-0.4,0.7c-0.4,0.6-0.8,1.2-1.2,1.8c0,0.1-0.1,0.1-0.1,0.2c-0.5,0.6-0.9,1.2-1.4,1.8
			c-0.2,0.2-0.3,0.4-0.5,0.6c-0.4,0.4-0.7,0.8-1.1,1.2c-0.2,0.2-0.4,0.4-0.6,0.6c-0.4,0.4-0.8,0.7-1.1,1c-0.2,0.2-0.4,0.4-0.6,0.5
			c-0.4,0.4-0.9,0.7-1.4,1.1c-0.2,0.1-0.3,0.2-0.5,0.4c-0.6,0.4-1.3,0.9-2,1.3c-0.2,0.1-0.3,0.2-0.5,0.3c-0.5,0.3-1.1,0.6-1.6,0.9
			c-0.2,0.1-0.5,0.2-0.7,0.4c-0.5,0.2-1,0.4-1.4,0.6c-0.3,0.1-0.5,0.2-0.8,0.3c-0.5,0.2-1,0.4-1.6,0.5c-0.2,0.1-0.5,0.2-0.7,0.2
			c-0.8,0.2-1.5,0.4-2.3,0.6c-2.1,0.4-4.3,0.7-6.5,0.7c-2.2,0-4.3-0.2-6.4-0.7c-0.7-0.2-1.5-0.3-2.2-0.5l-0.3-0.1
			c-0.1,0-0.2-0.1-0.3-0.1l-3.8,12.3c2.1,0.6,4.3,1.2,6.5,1.5c2.1,0.3,4.2,0.5,6.4,0.5c2.2,0,4.4-0.2,6.5-0.5
			c5-0.7,9.8-2.3,14.1-4.6c0.1-0.1,0.2-0.1,0.4-0.2c12-6.5,20.7-18.3,22.9-32.3c0.5-2.2,0.7-4.4,0.7-6.7
			C147.4,125.1,147.1,122.9,146.6,120.7"/>
		<path id="path1157" inkscape:connector-curvature="0" class="st2" d="M109.3,83.5c-2.1-0.3-4.3-0.5-6.5-0.5
			c-2.2,0-4.3,0.2-6.4,0.5c-5.1,0.7-9.8,2.3-14.2,4.6c-0.1,0.1-0.2,0.1-0.3,0.2c-13.5,7.2-22.8,21.2-23.4,37.5c0,0.5,0,1.1,0,1.6
			c0,0.5,0,1.1,0,1.6c0.2,6.8,2,13.3,5.1,19c0.1,0.1,0.1,0.3,0.2,0.4c5.5,10.2,14.8,18,26.1,21.4l3.8-12.3
			c-10.8-3.3-19.2-12.3-21.6-23.4c-0.3-2.2-0.5-4.4-0.5-6.7c0-2.3,0.2-4.5,0.5-6.7c0.1-0.5,0.2-0.9,0.4-1.4l0.7-2.4
			c3.6-10.3,12.4-18.1,23.3-20.3c2.1-0.4,4.2-0.7,6.4-0.7c2.2,0,4.4,0.2,6.5,0.7c0.9,0.2,1.7,0.4,2.5,0.6v0l0,0h0l0.2,0.1l3.8-12.3
			C113.7,84.4,111.6,83.9,109.3,83.5"/>
	</g>
</g>
</svg>
