<?xml version="1.0" encoding="UTF-8"?>
<svg version="1.1"
    xmlns="http://www.w3.org/2000/svg" width="600" height="271">
    <path d="M0 0 C0.82886719 0.51046875 1.65773437 1.0209375 2.51171875 1.546875 C15.49144138 10.44977473 21.81727204 28.39105115 24.62060547 43.36450195 C28.6636717 71.45002318 19.88864586 98.13622117 3.25 120.625 C0.90262243 123.75210089 -0.73755688 125.82503792 -4 128 C-3.40832031 128.4125 -2.81664062 128.825 -2.20703125 129.25 C5.32197991 134.75244209 10.12334543 140.2903921 11.77734375 149.65234375 C12.5644273 157.95124221 10.79351317 165.13008879 6 172 C-1.01069389 179.1155547 -8.6810388 181.27518697 -18.4375 181.375 C-28.13952659 181.26548454 -35.01896135 179.78969172 -42.2734375 172.96875 C-47.12989219 167.43107315 -49.14672897 161.15420341 -49.125 153.875 C-49.12886719 152.57175781 -49.12886719 152.57175781 -49.1328125 151.2421875 C-49 149 -49 149 -48 147 C-48.99 147.33 -49.98 147.66 -51 148 C-53.69848628 148.09627338 -56.36490376 148.13931086 -59.0625 148.125 C-60.16174805 148.13080078 -60.16174805 148.13080078 -61.28320312 148.13671875 C-66.74663018 148.12668491 -66.74663018 148.12668491 -69 147 C-69.27618164 147.71768555 -69.55236328 148.43537109 -69.83691406 149.17480469 C-71.83140825 154.01953322 -74.33089505 158.60649855 -76.75 163.25 C-77.51957031 164.74853516 -77.51957031 164.74853516 -78.3046875 166.27734375 C-87.80530718 184.53858509 -87.80530718 184.53858509 -95 189 C-98.03321241 189.67356848 -100.90347433 189.70164668 -104 189.625 C-104.78117187 189.64433594 -105.56234375 189.66367188 -106.3671875 189.68359375 C-110.36092733 189.64997641 -113.1611063 189.30622039 -116.36328125 186.8125 C-130.52428451 171.70742986 -129.54548636 148.78563222 -129.15380859 129.5859375 C-128.86438018 122.83812086 -127.89468028 116.23490144 -126.75390625 109.5859375 C-125.48747639 102.14105907 -124.73689033 95.50236278 -126 88 C-127.66003455 64.63595379 -122.05908536 41.56261393 -109 22 C-108.27039063 20.906875 -107.54078125 19.81375 -106.7890625 18.6875 C-101.00947114 10.43638854 -94.6899696 5.11235682 -86 0 C-85.04351562 -0.56332031 -84.08703125 -1.12664063 -83.1015625 -1.70703125 C-56.93381495 -15.86629191 -25.23591565 -16.23569398 0 0 Z M-25 143 C-28.74539104 148.16605661 -28.83090862 153.85492856 -28 160 C-26.36100728 163.3365209 -25.04550732 165.19844439 -22.125 167.4375 C-19.02084524 168.25918802 -17.0609927 167.95656022 -14 167 C-9.81089586 162.81089586 -9.12618878 159.92437888 -8.75 154.1875 C-8.82172416 149.91592776 -9.87007118 146.7457369 -12 143 C-16.92046646 139.1866385 -20.0538958 139.29042185 -25 143 Z " fill="#307AD8" transform="translate(137,25)"/>
    
    <path d="M0 0 C7.59 0 15.18 0 23 0 C23.03738281 3.40699219 23.07476562 6.81398437 23.11328125 10.32421875 C23.15950453 13.62726224 23.21073539 16.93019278 23.26245117 20.2331543 C23.29568634 22.52702967 23.32372264 24.82098654 23.34643555 27.11499023 C23.38000674 30.41425273 23.43232535 33.7127693 23.48828125 37.01171875 C23.49467117 38.03585373 23.5010611 39.05998871 23.50764465 40.11515808 C23.60497741 47.06410876 23.60497741 47.06410876 27 53 C30.63992335 55.28795182 33.80954998 55.11856542 37.9375 54.77734375 C41.35200305 53.49043824 42.76711633 51.91383081 45 49 C45.75927896 45.27110259 45.72130121 41.5885038 45.70703125 37.79296875 C45.72215256 36.71243729 45.73727386 35.63190582 45.75285339 34.51863098 C45.79576758 31.07470898 45.80457244 27.63166287 45.8125 24.1875 C45.83564125 21.84958603 45.8610058 19.51169293 45.88867188 17.17382812 C45.95573893 11.44874052 45.9766628 5.72610048 46 0 C53.59 0 61.18 0 69 0 C69.09215713 7.08073915 69.17170118 14.1593719 69.21972656 21.24023438 C69.23976034 23.64557981 69.26699522 26.05087703 69.30175781 28.45605469 C69.35063808 31.92655378 69.37305205 35.39640526 69.390625 38.8671875 C69.41127014 39.93113739 69.43191528 40.99508728 69.45318604 42.09127808 C69.45571246 50.62325262 67.48008664 57.13398259 62.875 64.3125 C54.74604105 71.91130945 46.02069863 73.19344914 35.375 73.25 C34.42753906 73.270625 33.48007812 73.29125 32.50390625 73.3125 C22.72994115 73.36598271 14.84047493 71.71370366 7.6875 64.8203125 C0.09913191 56.63471174 -0.30173306 48.12419815 -0.1953125 37.5 C-0.1924826 36.42371338 -0.18965271 35.34742676 -0.18673706 34.23852539 C-0.17560731 30.82556701 -0.15051595 27.4128781 -0.125 24 C-0.11496089 21.67578506 -0.10583667 19.35156598 -0.09765625 17.02734375 C-0.07739941 11.35137699 -0.03823644 5.67598756 0 0 Z " fill="#F15A24" transform="translate(303,133)"/>
    <path d="M0 0 C5.79669054 2.95696349 9.52166187 8.17729194 11.875 14.08203125 C14.49733043 22.98134266 14.9968381 33.14933531 11.23828125 41.82421875 C8.23482156 46.94776763 3.44681731 51.50470673 -2.19921875 53.38671875 C-4.46685449 53.53319957 -6.73954241 53.60768135 -9.01171875 53.63671875 C-10.81576172 53.67539063 -10.81576172 53.67539063 -12.65625 53.71484375 C-16.19921875 53.38671875 -16.19921875 53.38671875 -22.19921875 50.38671875 C-22.52921875 57.64671875 -22.85921875 64.90671875 -23.19921875 72.38671875 C-30.12921875 72.38671875 -37.05921875 72.38671875 -44.19921875 72.38671875 C-44.19921875 48.62671875 -44.19921875 24.86671875 -44.19921875 0.38671875 C-37.92921875 0.38671875 -31.65921875 0.38671875 -25.19921875 0.38671875 C-24.86921875 1.70671875 -24.53921875 3.02671875 -24.19921875 4.38671875 C-22.80703125 3.42765625 -22.80703125 3.42765625 -21.38671875 2.44921875 C-15.15189923 -1.58507624 -7.15295662 -1.99469661 0 0 Z M-19.76171875 13.63671875 C-23.60221308 17.96958415 -24.03549177 22.70610428 -24.19921875 28.38671875 C-23.53311892 33.0974866 -22.39766781 36.31442223 -18.82421875 39.51171875 C-15.70440667 40.55165611 -14.25609744 40.59338139 -11.19921875 39.38671875 C-6.88922154 34.92279306 -6.91074085 29.77753065 -6.98046875 23.859375 C-7.37350021 19.41671577 -8.98570786 16.52438521 -12.19921875 13.51171875 C-15.19445887 11.82689618 -16.72183438 12.15384833 -19.76171875 13.63671875 Z " fill="#F15A24" transform="translate(430.19921875,152.61328125)"/>
    <path d="M0 0 C7.16580761 6.97723372 7.16580761 6.97723372 7.49525452 12.2297821 C7.49303391 12.95148087 7.49081329 13.67317963 7.48852539 14.41674805 C7.48844986 15.23737228 7.48837433 16.05799652 7.48829651 16.90348816 C7.48313522 17.78482925 7.47797394 18.66617035 7.47265625 19.57421875 C7.4712413 20.48001175 7.46982635 21.38580475 7.46836853 22.31904602 C7.46277001 25.21273091 7.45021781 28.10633849 7.4375 31 C7.43248481 32.96158742 7.42792193 34.92317606 7.42382812 36.88476562 C7.41365187 41.69406418 7.39407613 46.50319553 7.375 51.3125 C0.775 51.3125 -5.825 51.3125 -12.625 51.3125 C-12.67398438 49.28867188 -12.72296875 47.26484375 -12.7734375 45.1796875 C-12.8290975 43.20375748 -12.88482388 41.22782874 -12.94238281 39.25195312 C-12.98049202 37.88648079 -13.01537536 36.52091423 -13.046875 35.15527344 C-13.09291878 33.18402393 -13.15181049 31.21308796 -13.2109375 29.2421875 C-13.2423584 28.05866699 -13.2737793 26.87514648 -13.30615234 25.65576172 C-13.62915768 22.26890484 -14.42149201 19.48384912 -15.625 16.3125 C-18.42545046 15.45599347 -18.42545046 15.45599347 -21.625 15.3125 C-24.81939573 17.64354553 -25.92834658 19.5077953 -26.625 23.3125 C-26.7722796 25.4819408 -26.8722547 27.65479053 -26.94140625 29.828125 C-26.98330078 31.07851562 -27.02519531 32.32890625 -27.06835938 33.6171875 C-27.10767578 34.91914063 -27.14699219 36.22109375 -27.1875 37.5625 C-27.23068359 38.87992188 -27.27386719 40.19734375 -27.31835938 41.5546875 C-27.42441854 44.80716854 -27.52521153 48.05982053 -27.625 51.3125 C-34.225 51.3125 -40.825 51.3125 -47.625 51.3125 C-47.625 34.1525 -47.625 16.9925 -47.625 -0.6875 C-41.355 -0.6875 -35.085 -0.6875 -28.625 -0.6875 C-28.295 1.2925 -27.965 3.2725 -27.625 5.3125 C-27.15449219 4.89097656 -26.68398437 4.46945313 -26.19921875 4.03515625 C-25.57660156 3.48730469 -24.95398438 2.93945312 -24.3125 2.375 C-23.69761719 1.82972656 -23.08273438 1.28445312 -22.44921875 0.72265625 C-16.69182873 -3.72791719 -6.22877188 -2.8996007 0 0 Z " fill="#2868C6" transform="translate(238.625,153.6875)"/>
    <path d="M0 0 C6.62590806 5.2112525 9.5615918 11.28568458 10.703125 19.55859375 C11.18593361 27.56826479 9.40667406 33.91641022 4.7421875 40.4765625 C-0.5778254 46.26343368 -7.22415759 49.34718149 -14.96484375 49.76171875 C-26.25650339 49.96590093 -34.83545528 49.62266767 -43.4453125 41.52734375 C-48.90653397 35.30006858 -50.50967756 28.30687055 -50.37890625 20.2109375 C-49.73890686 12.01170008 -46.3360724 5.96449703 -40.171875 0.55859375 C-29.02541381 -6.6366965 -11.19826999 -7.43194537 0 0 Z M-26.171875 11.55859375 C-29.91726604 16.72465036 -30.00278362 22.41352231 -29.171875 28.55859375 C-27.53288228 31.89511465 -26.21738232 33.75703814 -23.296875 35.99609375 C-20.19272024 36.81778177 -18.2328677 36.51515397 -15.171875 35.55859375 C-10.98277086 31.36948961 -10.29806378 28.48297263 -9.921875 22.74609375 C-9.99359916 18.47452151 -11.04194618 15.30433065 -13.171875 11.55859375 C-18.09234146 7.74523225 -21.2257708 7.8490156 -26.171875 11.55859375 Z " fill="#2767C5" transform="translate(138.171875,156.44140625)"/>
    
    <path d="M0 0 C0 6.6 0 13.2 0 20 C3.63 20 7.26 20 11 20 C11 24.95 11 29.9 11 35 C7.37 35 3.74 35 0 35 C0.33 42.92 0.66 50.84 1 59 C5.95 58.505 5.95 58.505 11 58 C11.495 64.93 11.495 64.93 12 72 C7.57146356 73.10713411 3.65954704 73.2206976 -0.875 73.25 C-1.66519531 73.270625 -2.45539063 73.29125 -3.26953125 73.3125 C-8.27616168 73.345822 -11.65180384 72.75185379 -16 70 C-19.81916624 65.78574759 -20.12274862 62.12744527 -20.09765625 56.58203125 C-20.09443359 55.32841797 -20.09121094 54.07480469 -20.08789062 52.78320312 C-20.07951172 51.47287109 -20.07113281 50.16253906 -20.0625 48.8125 C-20.05748317 47.47721519 -20.05292059 46.14192859 -20.04882812 44.80664062 C-20.03702695 41.53771527 -20.02056297 38.26888009 -20 35 C-22.64 35 -25.28 35 -28 35 C-28 30.05 -28 25.1 -28 20 C-25.36 20 -22.72 20 -20 20 C-20 16.7 -20 13.4 -20 10 C-17.37532366 8.5202565 -14.75027507 7.04118057 -12.125 5.5625 C-11.37863281 5.14162109 -10.63226563 4.72074219 -9.86328125 4.28710938 C-9.14785156 3.88427734 -8.43242187 3.48144531 -7.6953125 3.06640625 C-7.03547363 2.69459229 -6.37563477 2.32277832 -5.69580078 1.93969727 C-2.19537542 0 -2.19537542 0 0 0 Z " fill="#2868C6" transform="translate(282,133)"/>
    <path d="M0 0 C3.30333519 2.66102002 5.01264127 5.31991986 5.68359375 9.5390625 C5.70024641 21.89533341 1.31556585 30.85859295 -5.75 40.8125 C-6.22308594 41.48410156 -6.69617188 42.15570313 -7.18359375 42.84765625 C-11.63098578 48.58013039 -17.89232615 52.52660872 -24.75 54.8125 C-28.84699372 55.19185127 -31.02793017 55.26178789 -34.5625 53.0625 C-37.92280704 49.60618419 -39.03099058 46.93628741 -39 42.125 C-38.63091039 28.79892251 -33.03143958 17.44994482 -23.87109375 7.75390625 C-17.19729605 1.64547632 -9.24028499 -3.99012306 0 0 Z " fill="#CC6243" transform="translate(110.75,66.1875)"/>
    <path d="M0 0 C10.71496462 -0.99674089 20.33604232 3.43248729 28.58203125 9.953125 C29.37996094 10.62859375 30.17789063 11.3040625 31 12 C31.93392578 12.76570313 31.93392578 12.76570313 32.88671875 13.546875 C48.29457278 27.48218354 58.06161868 50.99480841 59.125 71.3984375 C59.34715186 80.42335695 58.17542986 89.00018023 52 96 C46.77256918 100.24676812 40.93258022 101.79744702 34.5625 103.75 C5.83149656 113.0202952 -12.88434104 130.4307648 -27 157 C-28.71776475 160.44370933 -30.38720814 163.91047474 -32.0625 167.375 C-39.83244319 183.41622159 -39.83244319 183.41622159 -47 187 C-49.6723621 187.13415472 -52.32250488 187.04318541 -55 187 C-54.29875 186.54625 -53.5975 186.0925 -52.875 185.625 C-46.31796879 179.63814542 -42.72318797 170.6472035 -38.75 162.8125 C-25.47298686 137.14723552 -7.90928073 113.64465521 20.5625 104.14501953 C24.08423888 103.0591927 27.61090797 102.0177506 31.17431641 101.0769043 C37.39035874 99.39941067 42.11238847 97.35951441 46.25 92.1875 C52.06852095 81.58947969 51.50126112 67.25229472 48.4375 55.8125 C47.67322026 53.52498677 46.85827631 51.25393036 46 49 C45.76394043 48.36497559 45.52788086 47.72995117 45.28466797 47.07568359 C38.94165253 30.31229205 28.30097174 13.54221465 12 5 C8.05242605 3.46668418 4.06892352 2.17041793 0 1 C0 0.67 0 0.34 0 0 Z " fill="#E55727" transform="translate(89,27)"/>
    
    <path d="M0 0 C6.93 0 13.86 0 21 0 C21 17.16 21 34.32 21 52 C14.07 52 7.14 52 0 52 C0 34.84 0 17.68 0 0 Z " fill="#2868C6" transform="translate(158,153)"/>
    
    
    <path d="M0 0 C6.93 0 13.86 0 21 0 C21 4.62 21 9.24 21 14 C14.07 14 7.14 14 0 14 C0 9.38 0 4.76 0 0 Z " fill="#2868C6" transform="translate(158,133)"/>
    
    
    
    
    
    
    
    
    
    
    
    
</svg>
