<?xml version="1.0" encoding="iso-8859-1"?>
<!-- Uploaded to: SVG Repo, www.svgrepo.com, Generator: SVG Repo Mixer Tools -->
<!DOCTYPE svg PUBLIC "-//W3C//DTD SVG 1.1//EN" "http://www.w3.org/Graphics/SVG/1.1/DTD/svg11.dtd">
<svg fill="var(--text-color)" version="1.1" id="Capa_1" xmlns="http://www.w3.org/2000/svg" xmlns:xlink="http://www.w3.org/1999/xlink" 
	 width="800px" height="800px" viewBox="0 0 125.237 125.236"
	 xml:space="preserve">
<g>
	<g>
		<path d="M123.701,103.49c-3.006-3.037-11.315-12.06-13.649-17.25c-2.271-5.045-4.396-12.869-5.304-16.4
			c0.258,0.232,0.538,0.447,0.856,0.621c0.688,0.373,1.425,0.55,2.15,0.55c1.596,0,3.146-0.853,3.96-2.354
			c12.713-23.363-4.627-33.997-10.322-37.491c-0.149-0.092-0.311-0.152-0.467-0.225c-1.271-0.834-2.695-1.448-4.146-1.804
			l-2.89,2.91l-2.804-2.942c-0.01,0.003-0.021,0.003-0.028,0.005c-1.391,0.333-2.755,0.908-3.987,1.685
			c-0.309,0.094-0.612,0.215-0.904,0.379c-1.688,0.95-3.188,1.115-4.845,0.537c-5.946-2.072-11.406-12.614-12.849-16.138
			c-0.937-2.304-3.561-3.414-5.869-2.477c-0.615,0.25-1.136,0.625-1.566,1.078c-1.814-0.042-3.552,1.012-4.275,2.795
			c-1.432,3.521-6.864,14.045-12.841,16.135c-1.663,0.582-3.161,0.419-4.852-0.533c-0.293-0.165-0.598-0.287-0.906-0.38
			c-1.233-0.776-2.598-1.352-3.988-1.684c-0.007-0.002-0.017-0.003-0.026-0.006l-2.804,2.943l-2.891-2.91
			c-1.45,0.355-2.874,0.97-4.146,1.804c-0.156,0.073-0.314,0.133-0.465,0.225C18.147,36.058,0.81,46.69,13.521,70.054
			c0.816,1.501,2.363,2.353,3.959,2.353c0.729,0,1.466-0.177,2.152-0.549c0.32-0.173,0.6-0.388,0.857-0.621
			c-0.904,3.529-3.028,11.348-5.304,16.401c-2.331,5.177-10.642,14.208-13.648,17.25c-2.067,2.091-2.048,5.462,0.043,7.528
			c1.04,1.027,2.392,1.539,3.742,1.539c1.375,0,2.746-0.527,3.788-1.582c1.243-1.258,12.251-12.514,15.784-20.364
			c2.139-4.75,4.069-11.265,5.241-15.591c0.401,0.035,0.804,0.057,1.209,0.057c0.421,0,0.84-0.023,1.256-0.062
			c0.639,4.062,1.5,10.426,1.477,15.054c-0.026,5.678-3.956,17.305-5.467,21.307c-1.039,2.75,0.346,5.823,3.097,6.863
			c0.621,0.233,1.256,0.345,1.881,0.345c2.152,0,4.175-1.312,4.982-3.441c0.626-1.654,6.115-16.412,6.156-25.022
			c0.039-8.31-2.228-20.509-2.326-21.024c-0.018-0.101-0.061-0.189-0.084-0.289c0.572-1.194,0.905-2.523,0.905-3.967V42.396
			c1.229-0.101,2.458-0.36,3.675-0.786c7.675-2.684,13.241-11.312,16.098-16.762c3.027,5.425,8.297,12.902,15.344,15.366
			c1.217,0.425,2.443,0.686,3.674,0.786v23.838c0,1.445,0.332,2.775,0.906,3.97c-0.024,0.099-0.066,0.188-0.084,0.288
			c-0.099,0.516-2.365,12.715-2.326,21.023c0.041,8.611,5.53,23.369,6.156,25.022c0.808,2.13,2.831,3.442,4.979,3.442
			c0.625,0,1.265-0.112,1.884-0.346c2.751-1.041,4.136-4.113,3.097-6.865c-1.511-3.996-5.439-15.612-5.467-21.305
			c-0.023-4.627,0.837-10.99,1.474-15.054c0.418,0.038,0.838,0.063,1.259,0.063c0.405,0,0.809-0.021,1.208-0.058
			c1.173,4.327,3.104,10.841,5.242,15.591c3.533,7.85,14.541,19.107,15.784,20.365c1.042,1.053,2.414,1.581,3.786,1.581
			c1.353,0,2.706-0.513,3.744-1.538C125.748,108.953,125.766,105.58,123.701,103.49z M105.768,47.242
			c1.721,3.253,2.105,7.373,0,12.879V47.242z M19.471,61.517c-2.105-5.506-1.721-9.626,0-12.88V61.517z M31.375,56.41h-0.054
			l-2.8-3.83l2.8-18.706h0.054l2.798,18.706L31.375,56.41z M93.918,55.015h-0.054l-2.799-3.83l2.799-18.706h0.054l2.798,18.706
			L93.918,55.015z"/>
		<circle cx="93.891" cy="16.86" r="11.604"/>
		<circle cx="31.348" cy="18.256" r="11.604"/>
	</g>
</g>
</svg>