<?xml version="1.0" encoding="UTF-8"?>
<svg fill="var(--text-color)" height="1600px" width="1600px" version="1.1" id="Layer_1" xmlns="http://www.w3.org/2000/svg" xmlns:xlink="http://www.w3.org/1999/xlink" 
	 viewBox="0 0 512 512" xml:space="preserve">
<path d="M0 0 C9.88138209 4.05109293 17.70490049 10.93470543 24.5 19.0625 C25.325 20.031875 26.15 21.00125 27 22 C27.66 22 28.32 22 29 22 C35.09575431 32.73065246 39.82778757 43.06171838 43 55 C43.20109375 55.64324219 43.4021875 56.28648438 43.609375 56.94921875 C45.81159051 68.5108502 44.39692126 82.02200838 38.9375 92.4375 C33.90947165 99.61615994 24.74265081 101.46032305 16.81982422 103.99169922 C5.42261643 107.72590865 -4.64681877 113.50583616 -14 121 C-14.76828125 121.60328125 -15.5365625 122.2065625 -16.328125 122.828125 C-22.917419 128.3115235 -28.20073631 134.9263462 -33 142 C-33 142.66 -33 143.32 -33 144 C-33.88075195 144.84220093 -33.88075195 144.84220093 -34.77929688 145.70141602 C-37.42119487 148.43596632 -38.91778949 151.38598575 -40.53125 154.77734375 C-40.84904419 155.42570694 -41.16683838 156.07407013 -41.4942627 156.74208069 C-42.50397559 158.80352619 -43.50297518 160.86989145 -44.5 162.9375 C-45.49769154 165.00118175 -46.49785649 167.06348142 -47.5057373 169.12220764 C-48.13073877 170.39921619 -48.74999195 171.67906023 -49.36242676 172.96214294 C-52.41033773 179.19743451 -55.35950922 183.53532612 -62 186 C-68.63430434 187.10942607 -76.54791784 187.51483774 -82.77734375 184.78125 C-92.69321798 176.71151742 -95.5577373 162.60512464 -96.80371094 150.51489258 C-97.99273212 135.2809284 -96.96318433 120.27528921 -94.72265625 105.203125 C-94.05488985 100.66529237 -93.71445507 96.20612534 -93.5 91.625 C-93.23278155 86.69509231 -92.52828286 82.60844164 -90.7421875 78.015625 C-89.98681716 75.96419819 -89.57738929 74.02336958 -89.1875 71.875 C-87.75211655 64.96569659 -84.72707515 58.48114043 -82 52 C-81.50242187 50.78699219 -81.00484375 49.57398438 -80.4921875 48.32421875 C-79.20108777 45.44797302 -77.85342616 43.01700373 -76.0625 40.4375 C-75.53914063 39.67566406 -75.01578125 38.91382813 -74.4765625 38.12890625 C-73.98929688 37.42636719 -73.50203125 36.72382812 -73 36 C-72.319375 34.96875 -71.63875 33.9375 -70.9375 32.875 C-70.298125 31.92625 -69.65875 30.9775 -69 30 C-68.64550781 29.44699219 -68.29101562 28.89398438 -67.92578125 28.32421875 C-65.10938989 24.1043101 -61.91904678 21.04151084 -58.01171875 17.8203125 C-55.99630087 15.99665283 -54.54938698 14.11706954 -52.9375 11.9375 C-48.85913587 7.05481812 -43.33757409 5.36767158 -37.5234375 3.32421875 C-34.0576738 2.17850104 -34.0576738 2.17850104 -31.55078125 0.33984375 C-28.00441534 -1.52294876 -24.7069922 -1.28712366 -20.8125 -1.125 C-2.02377411 -0.55615167 -2.02377411 -0.55615167 0 0 Z " fill="#2662CE" transform="translate(104,29)"/>
<path d="M0 0 C8.25 0 16.5 0 25 0 C25.04898437 3.32320312 25.09796875 6.64640625 25.1484375 10.0703125 C25.20248373 13.29724539 25.25977698 16.52410548 25.31738281 19.75097656 C25.35560988 21.98952791 25.39047361 24.22813937 25.421875 26.46679688 C25.46766148 29.68902026 25.52563414 32.91083207 25.5859375 36.1328125 C25.59748871 37.12991241 25.60903992 38.12701233 25.62094116 39.15432739 C25.7264463 44.1483619 26.03588387 48.32057946 28 53 C29.89454372 53.10877763 31.79091754 53.18594173 33.6875 53.25 C34.74324219 53.29640625 35.79898438 53.3428125 36.88671875 53.390625 C40.98806014 52.87602759 42.25338904 52.12104504 45 49 C45.77427931 45.30814683 45.72110308 41.65192992 45.70703125 37.890625 C45.72215256 36.80867859 45.73727386 35.72673218 45.75285339 34.61199951 C45.79582606 31.15778925 45.80457805 27.70445126 45.8125 24.25 C45.83563672 21.90752874 45.86100032 19.56507833 45.88867188 17.22265625 C45.95581043 11.4812925 45.97667424 5.74237796 46 0 C54.25 0 62.5 0 71 0 C71.0691342 6.79563544 71.12879054 13.59003438 71.16479492 20.38574219 C71.17981541 22.69405265 71.20023779 25.00233488 71.22631836 27.31054688 C71.26299885 30.64199825 71.27979431 33.97306995 71.29296875 37.3046875 C71.30845261 38.32488983 71.32393646 39.34509216 71.33988953 40.39620972 C71.34203215 49.66537409 69.50998992 58.40514903 64 66 C52.78965729 75.02588621 38.0270675 74.97769058 24.3125 73.76171875 C17.31338872 72.52437586 10.69198716 69.21928361 6.10546875 63.734375 C0.34396626 54.8187653 -0.30767773 45.35192584 -0.1953125 34.9609375 C-0.1924826 33.95406891 -0.18965271 32.94720032 -0.18673706 31.90982056 C-0.17564829 28.73141999 -0.15056543 25.55331368 -0.125 22.375 C-0.11495557 20.20443119 -0.1058323 18.0338579 -0.09765625 15.86328125 C-0.07745777 10.57531953 -0.0382879 5.28798452 0 0 Z " fill="#EA421B" transform="translate(302,133)"/>
<path d="M0 0 C7.57257593 5.63540534 11.73756439 11.92931777 13.1875 21.1953125 C14.13300395 30.15790201 14.14946542 40.02496385 8.375 47.5 C2.65976696 52.81649585 -1.78711024 55.14150619 -9.5625 55.25 C-11.20992188 55.28867188 -11.20992188 55.28867188 -12.890625 55.328125 C-16.3125 55 -16.3125 55 -23.3125 52 C-23.3125 58.93 -23.3125 65.86 -23.3125 73 C-30.5725 73 -37.8325 73 -45.3125 73 C-45.3125 49.24 -45.3125 25.48 -45.3125 1 C-38.7125 1 -32.1125 1 -25.3125 1 C-24.9825 1.66 -24.6525 2.32 -24.3125 3 C-23.80203125 2.71125 -23.2915625 2.4225 -22.765625 2.125 C-15.35016961 -1.66161552 -8.02621213 -2.42300744 0 0 Z M-20.3125 14 C-24.68502782 20.01222575 -25.42504372 25.64317937 -24.3125 33 C-22.87826885 35.80454114 -21.5376867 37.7748133 -19.3125 40 C-15.85480809 40.58342353 -15.85480809 40.58342353 -12.3125 40 C-8.56119828 35.49843794 -8.01494862 30.7728699 -8.08984375 25.02734375 C-8.51796444 21.12919217 -10.42516877 18.26761604 -12.625 15.125 C-15.1470207 13.44365287 -17.36474987 13.80348332 -20.3125 14 Z " fill="#EA421B" transform="translate(431.3125,152)"/>
<path d="M0 0 C4.55967214 3.33634547 8.41595641 6.16518384 9.5625 11.875 C9.64966491 13.24294032 9.69033373 14.61439374 9.69189453 15.98510742 C9.69504669 16.78240768 9.69819885 17.57970795 9.70144653 18.40116882 C9.6994223 19.2523378 9.69739807 20.10350677 9.6953125 20.98046875 C9.69626923 21.86027908 9.69722595 22.74008942 9.69821167 23.64656067 C9.69889102 25.50159782 9.69705381 27.35663737 9.69287109 29.21166992 C9.68750021 32.06239089 9.69283417 34.91295568 9.69921875 37.76367188 C9.6985583 39.56510452 9.69727783 41.36653706 9.6953125 43.16796875 C9.69733673 44.02521042 9.69936096 44.88245209 9.70144653 45.76567078 C9.67746309 51.76003691 9.67746309 51.76003691 8.5625 52.875 C7.00077255 52.96185603 5.43520656 52.98202219 3.87109375 52.97265625 C2.92685547 52.96943359 1.98261719 52.96621094 1.00976562 52.96289062 C0.01654297 52.95451172 -0.97667969 52.94613281 -2 52.9375 C-2.99708984 52.93298828 -3.99417969 52.92847656 -5.02148438 52.92382812 C-7.49354849 52.91200007 -9.96549518 52.89551849 -12.4375 52.875 C-12.46255615 52.06345459 -12.4876123 51.25190918 -12.51342773 50.41577148 C-12.62995817 46.71454284 -12.752425 43.01353319 -12.875 39.3125 C-12.91431641 38.03568359 -12.95363281 36.75886719 -12.99414062 35.44335938 C-13.03603516 34.20263672 -13.07792969 32.96191406 -13.12109375 31.68359375 C-13.17608032 29.97901001 -13.17608032 29.97901001 -13.23217773 28.23999023 C-13.44554301 24.74318455 -13.89704277 21.33508025 -14.4375 17.875 C-17.84364946 17.89626462 -17.84364946 17.89626462 -21.4375 18.875 C-24.17538093 23.12290668 -24.83459747 26.58844975 -24.94921875 31.5859375 C-24.98466797 32.82988281 -25.02011719 34.07382813 -25.05664062 35.35546875 C-25.07919922 36.64066406 -25.10175781 37.92585938 -25.125 39.25 C-25.15916016 40.55839844 -25.19332031 41.86679688 -25.22851562 43.21484375 C-25.31077214 46.43459871 -25.37581821 49.65478518 -25.4375 52.875 C-32.3675 52.875 -39.2975 52.875 -46.4375 52.875 C-46.4375 35.715 -46.4375 18.555 -46.4375 0.875 C-39.8375 0.875 -33.2375 0.875 -26.4375 0.875 C-26.1075 2.195 -25.7775 3.515 -25.4375 4.875 C-24.509375 4.070625 -23.58125 3.26625 -22.625 2.4375 C-16.60896756 -2.77639478 -7.27414914 -2.38063063 0 0 Z " fill="#1F50B8" transform="translate(237.4375,152.125)"/>
<path d="M0 0 C0.99 0 1.98 0 3 0 C3 0.66 3 1.32 3 2 C4.19342452 3.04239561 5.43136204 4.03409725 6.6875 5 C12.57500487 10.11365876 15.50964719 15.04100392 16.4765625 22.84765625 C16.92795755 31.06343615 16.09494255 38.26235557 11 45 C5.11286907 51.55834776 -2.19600203 54.59972428 -10.9453125 55.203125 C-20.39689105 55.34246031 -29.86138073 54.64358502 -37.50390625 48.50390625 C-43.23000479 42.74790641 -45.8020782 35.76942052 -46.078125 27.72265625 C-46.06432623 25.81497632 -46.03346379 23.90743631 -46 22 C-46.33 21.34 -46.66 20.68 -47 20 C-46.34 20 -45.68 20 -45 20 C-44.82984375 19.40832031 -44.6596875 18.81664062 -44.484375 18.20703125 C-42.13513039 10.54699429 -39.17941179 5.98856211 -32 2 C-22.06738933 -2.43555515 -10.50968709 -1.88323873 0 0 Z M-21 16 C-24.14845208 21.39734642 -25.19714352 26.80651367 -24 33 C-22.50932578 36.06871396 -20.84611069 38.10859733 -18 40 C-14.77448822 41.00720004 -13.48257038 40.73021637 -10 40 C-6.02940145 36.13121167 -5.23767656 31.88611623 -4.8984375 26.5390625 C-5.06363139 22.40921524 -6.09402642 19.68050071 -8 16 C-11.84007879 12.92793697 -17.11887647 13.02447196 -21 16 Z " fill="#1E50B8" transform="translate(133,152)"/>
<path d="M0 0 C0 6.6 0 13.2 0 20 C3.63 20 7.26 20 11 20 C11 24.95 11 29.9 11 35 C7.7 35 4.4 35 1 35 C1 42.59 1 50.18 1 58 C4.63 58 8.26 58 12 58 C12 62.95 12 67.9 12 73 C2.93591656 74.51068057 -7.89815607 76.22118831 -16 71 C-20.01213555 66.98786445 -20.89287012 63.70128566 -21.11352539 58.13745117 C-21.10828857 57.11627197 -21.10305176 56.09509277 -21.09765625 55.04296875 C-21.09282227 53.37524414 -21.09282227 53.37524414 -21.08789062 51.67382812 C-21.07951172 50.52333984 -21.07113281 49.37285156 -21.0625 48.1875 C-21.05798828 47.01767578 -21.05347656 45.84785156 -21.04882812 44.64257812 C-21.0370693 41.76166642 -21.02063426 38.88085956 -21 36 C-23.31 35.67 -25.62 35.34 -28 35 C-28 30.05 -28 25.1 -28 20 C-25.36 20 -22.72 20 -20 20 C-20 16.37 -20 12.74 -20 9 C-17.42236925 7.48938849 -14.83870395 5.99141595 -12.25 4.5 C-11.52039063 4.07074219 -10.79078125 3.64148438 -10.0390625 3.19921875 C-9.33007812 2.79316406 -8.62109375 2.38710937 -7.890625 1.96875 C-6.91657715 1.40317383 -6.91657715 1.40317383 -5.92285156 0.82617188 C-4 0 -4 0 0 0 Z " fill="#1F50B8" transform="translate(282,133)"/>
<path d="M0 0 C13.00047132 0.18342817 23.26423834 8.15714494 32 17 C33.18429933 18.33877316 34.35353723 19.69118618 35.5 21.0625 C36.325 22.031875 37.15 23.00125 38 24 C38.66 24 39.32 24 40 24 C46.09575431 34.73065246 50.82778757 45.06171838 54 57 C54.30164063 57.96486328 54.30164063 57.96486328 54.609375 58.94921875 C56.81159051 70.5108502 55.39692126 84.02200838 49.9375 94.4375 C44.90947165 101.61615994 35.74265081 103.46032305 27.81982422 105.99169922 C16.42261643 109.72590865 6.35318123 115.50583616 -3 123 C-3.76828125 123.60328125 -4.5365625 124.2065625 -5.328125 124.828125 C-11.917419 130.3115235 -17.20073631 136.9263462 -22 144 C-22 144.66 -22 145.32 -22 146 C-22.88075195 146.84220093 -22.88075195 146.84220093 -23.77929688 147.70141602 C-26.42119487 150.43596632 -27.91778949 153.38598575 -29.53125 156.77734375 C-29.84904419 157.42570694 -30.16683838 158.07407013 -30.4942627 158.74208069 C-31.50397559 160.80352619 -32.50297518 162.86989145 -33.5 164.9375 C-34.49769154 167.00118175 -35.49785649 169.06348142 -36.5057373 171.12220764 C-37.13073877 172.39921619 -37.74999195 173.67906023 -38.36242676 174.96214294 C-40.51402539 179.3637954 -42.80835678 183.53598233 -46.953125 186.3046875 C-50.58420524 187.53814606 -54.21667484 187.11127427 -58 187 C-57.63430908 186.5450415 -57.26861816 186.09008301 -56.8918457 185.62133789 C-52.66320282 180.19589654 -49.3913477 174.51140607 -46.1875 168.4375 C-45.13227618 166.47675032 -44.07497551 164.51711695 -43.015625 162.55859375 C-42.50193359 161.60839355 -41.98824219 160.65819336 -41.45898438 159.67919922 C-27.64594736 134.31369249 -9.26573776 111.2153221 19.5234375 102.5625 C21.73638128 101.93259212 23.95438646 101.32488652 26.17480469 100.72192383 C32.5185326 98.96349479 37.57008546 96.93265548 41.8125 91.8125 C46.66471722 80.32040659 47.58908833 69.04613555 44 57 C43.75507813 56.1234375 43.51015625 55.246875 43.2578125 54.34375 C37.90674971 36.72786187 28.04454583 17.64484355 11.9375 7.73046875 C7.46772806 5.39955252 2.74096542 3.69320194 -2 2 C-1.34 1.34 -0.68 0.68 0 0 Z " fill="#CD422B" transform="translate(93,27)"/>
<path d="M0 0 C3.27559772 2.54768712 5.04546829 4.40672414 5.68359375 8.59765625 C5.70089195 22.83407505 0.19131133 35.70461591 -9.5625 46.1875 C-14.96831781 51.18631608 -21.0871162 54.90313192 -28.5625 55.375 C-32.07833092 55.16965058 -32.78600549 54.72224576 -35.75 52.4375 C-39.92012517 46.8338943 -39.28484889 40.46197691 -38.75 33.75 C-35.61126033 20.20858029 -27.39053563 9.01219205 -16.15234375 1.16796875 C-11.13367303 -1.79427104 -5.39246621 -2.45112101 0 0 Z " fill="#BD4D35" transform="translate(110.75,66.25)"/>
<path d="M0 0 C6.93 0 13.86 0 21 0 C21 17.16 21 34.32 21 52 C14.07 52 7.14 52 0 52 C0 34.84 0 17.68 0 0 Z " fill="#2051B9" transform="translate(158,153)"/>
<path d="M0 0 C0.83265381 0.00523682 1.66530762 0.01047363 2.52319336 0.01586914 C3.42231445 0.0190918 4.32143555 0.02231445 5.24780273 0.02563477 C6.66609375 0.03820312 6.66609375 0.03820312 8.11303711 0.05102539 C9.06243164 0.05553711 10.01182617 0.06004883 10.98999023 0.06469727 C13.34353242 0.07652411 15.69704243 0.09446018 18.05053711 0.11352539 C18.05053711 4.73352539 18.05053711 9.35352539 18.05053711 14.11352539 C11.12053711 14.11352539 4.19053711 14.11352539 -2.94946289 14.11352539 C-3.04711914 4.05493164 -3.04711914 4.05493164 -2.94946289 1.11352539 C-1.94946289 0.11352539 -1.94946289 0.11352539 0 0 Z " fill="#1F50B8" transform="translate(160.949462890625,132.886474609375)"/>
<path d="M0 0 C4.95 0 9.9 0 15 0 C15 0.33 15 0.66 15 1 C10.05 1 5.1 1 0 1 C0 0.67 0 0.34 0 0 Z " fill="#1C56C1" transform="translate(71,173)"/>
<path d="" fill="#2161CF" transform="translate(0,0)"/>
<path d="" fill="#2160C6" transform="translate(0,0)"/>
<path d="" fill="#1D5BD2" transform="translate(0,0)"/>
<path d="M0 0 C2 1 2 1 2 1 Z " fill="#1F55CC" transform="translate(102,27)"/>
<path d="" fill="#1C55C6" transform="translate(0,0)"/>
<path d="" fill="#2060CA" transform="translate(0,0)"/>
<path d="" fill="#2463D0" transform="translate(0,0)"/>
<path d="" fill="#2060CA" transform="translate(0,0)"/>
<path d="" fill="#1F5CCC" transform="translate(0,0)"/>
<path d="" fill="#1C63D5" transform="translate(0,0)"/>
<path d="" fill="#0066CC" transform="translate(0,0)"/>
<path d="" fill="#2060BF" transform="translate(0,0)"/>
<path d="" fill="#1F5CCC" transform="translate(0,0)"/>
<path d="" fill="#2666CC" transform="translate(0,0)"/>
<path d="" fill="#1A4DCC" transform="translate(0,0)"/>
<path d="" fill="#245BC8" transform="translate(0,0)"/>
<path d="" fill="#265ECB" transform="translate(0,0)"/>
<path d="" fill="#2159C8" transform="translate(0,0)"/>
<path d="" fill="#2159C8" transform="translate(0,0)"/>
<path d="" fill="#0000BF" transform="translate(0,0)"/>
<path d="" fill="#1C55C6" transform="translate(0,0)"/>
<path d="" fill="#1F5CCC" transform="translate(0,0)"/>
<path d="" fill="#1F5CCC" transform="translate(0,0)"/>
</svg>
