<svg width="52" height="52" viewBox="0 0 52 52" fill="none" xmlns="http://www.w3.org/2000/svg">
<path d="M47.8579 12.0673C49.8269 14.267 50.6999 17.0055 51.3249 19.7648C54.5369 33.9756 45.9959 47.6386 31.7639 50.6969C16.2099 54.0394 2.9969 43.177 1.0129 29.5702C0.133895 23.9752 1.1409 18.2467 3.8759 13.2871C4.1279 12.8222 4.29289 12.2657 4.87689 12.0584L12.2219 12.1798L9.71689 17.4763C9.71689 17.6579 9.71689 17.8394 9.71689 18.021C11.5259 23.2701 14.8979 27.5837 18.0979 31.9979C18.4419 33.8719 18.1869 35.8466 19.0219 37.6378C21.3549 40.2727 23.6869 42.9096 26.0179 45.5484C26.1899 45.7438 26.3969 45.8682 26.6099 45.5781C27.6759 44.9267 27.9869 43.7307 28.5759 42.7566C29.9139 40.554 31.3679 38.4105 32.4249 36.045L32.7499 35.5299C34.0589 35.0206 34.8849 33.8483 36.0429 33.1348C36.4299 32.9221 36.7459 32.6001 36.9519 32.209C37.1579 31.8179 37.2439 31.3748 37.1999 30.935C37.1319 28.7235 37.1759 26.4942 37.1729 24.2915C37.6979 23.7726 38.1919 23.224 38.6539 22.6484C39.7819 21.0645 41.5579 19.9839 42.2209 18.0477C42.3379 18.0629 42.4569 18.0429 42.5629 17.9901C42.6679 17.9374 42.7549 17.8543 42.8129 17.7516C43.2809 17.0411 42.7779 16.446 42.5739 15.8213C42.1829 14.6193 41.4339 13.5357 41.3569 12.2272L47.8579 12.0673Z" fill="#287ABE"/>
<path d="M12.2249 12.1798L4.8799 12.0584C5.8479 9.53899 7.76289 7.736 9.74089 6.07808C13.1449 3.22113 17.0499 1.24938 21.4589 0.452992C29.1269 -0.911833 36.1019 0.74905 42.2749 5.52741C44.5749 7.30376 46.6619 9.31695 47.8639 12.0584L41.3509 12.2005L36.0219 12.1354V10.3383L39.8409 10.3176L39.9649 10.2495L39.8439 10.0482C39.2009 9.4179 38.4329 8.92921 37.5889 8.61359C36.7459 8.29796 35.8459 8.1624 34.9469 8.21562C29.6949 8.33996 24.4399 8.26595 19.1879 8.2541C17.3459 8.2541 15.8129 9.04162 14.3359 10.0156C12.9739 10.0748 12.9499 11.2383 12.5979 12.1265L12.2249 12.1798Z" fill="#B8E1F2"/>
<path d="M9.71689 18.0151C9.71689 17.8335 9.71689 17.6519 9.71689 17.4704C12.7869 16.5585 15.6059 15.0427 18.4949 13.7104C19.4099 13.2871 20.6709 13.3226 21.1599 12.1502C22.9179 12.2242 24.7119 11.8541 26.4379 12.3811C26.4519 16.5259 26.4659 20.6806 26.4799 24.8451H26.2079C22.8349 23.4033 19.4869 21.9053 16.0849 20.5405C13.9739 19.7026 12.0409 18.3644 9.71689 18.0151Z" fill="#B6E0F2"/>
<path d="M9.71689 18.0151C12.0379 18.3615 13.9709 19.6967 16.0939 20.5494C19.4959 21.9142 22.8439 23.4122 26.2159 24.854C25.9469 26.1182 24.6949 26.4202 23.9069 27.1633C22.1099 28.8626 19.9609 30.1564 18.2469 31.9594C18.1999 31.9806 18.1499 31.9927 18.0989 31.9949C14.9009 27.5807 11.5289 23.2701 9.71689 18.0151Z" fill="#90D4F0"/>
<path d="M37.1759 24.2797C37.1759 26.4942 37.1349 28.7205 37.2029 30.9232C37.2469 31.363 37.1609 31.806 36.9549 32.1971C36.7489 32.5883 36.4329 32.9102 36.0459 33.1229C34.8879 33.8364 34.0619 35.0088 32.7529 35.518C31.3559 33.7417 30.4859 31.6219 29.2329 29.7567C28.3809 28.4896 28.0279 26.8554 26.5689 26.0264C26.5689 25.7461 26.5739 25.4659 26.5839 25.1856L27.1489 24.8895C27.4039 25.2034 27.7619 25.1619 28.0929 25.1323C31.1149 24.856 34.1429 24.5718 37.1759 24.2797Z" fill="#4D8AC8"/>
<path d="M19.0219 37.6407C18.1869 35.8466 18.4299 33.8749 18.1009 31.9979C18.1529 31.9956 18.2029 31.9836 18.2489 31.9624C20.9139 32.0749 23.5779 32.143 26.2249 32.5545C26.2249 34.6269 26.2199 36.6993 26.2099 38.7717C25.6759 38.751 25.1439 38.6936 24.6179 38.6C22.7469 38.3098 20.9409 37.6467 19.0219 37.6407Z" fill="#B6E0F2"/>
<path d="M26.2079 38.7687C26.2079 36.6963 26.2119 34.6239 26.2219 32.5515C26.8349 30.4021 26.3169 28.1936 26.5569 26.0383C28.0189 26.8672 28.3749 28.5044 29.2209 29.7686C30.4769 31.6367 31.3439 33.7446 32.7419 35.5299L32.4159 36.045L26.4619 38.7835C26.3769 38.787 26.2919 38.7821 26.2079 38.7687Z" fill="#58AFDD"/>
<path d="M36.0069 12.1443L41.3359 12.2094C41.4129 13.518 42.1619 14.6016 42.5529 15.8036C42.7569 16.4312 43.2599 17.0233 42.7929 17.7338C42.6759 17.7245 42.5599 17.7471 42.4549 17.7993C42.3509 17.8515 42.2629 17.9312 42.1999 18.0299C41.0899 18.2371 40.1279 18.8263 39.1239 19.2763C38.1209 19.7263 37.2299 20.4783 36.0419 20.4457C36.0419 17.6983 36.0379 14.9519 36.0279 12.2065L36.0069 12.1443Z" fill="#4D8AC8"/>
<path d="M36.0479 20.4487C37.2329 20.4813 38.1209 19.7263 39.1299 19.2793C40.1399 18.8322 41.0959 18.2401 42.2059 18.0329C41.5399 19.972 39.7669 21.0497 38.6389 22.6336C38.1769 23.2092 37.6829 23.7578 37.1589 24.2767C34.1289 24.5629 31.0989 24.8481 28.0699 25.1323C27.7379 25.1619 27.3799 25.2034 27.1249 24.8896C29.2179 23.9214 31.3259 22.9859 33.3959 21.9704C34.3129 21.5263 35.3759 21.3161 36.0479 20.4487Z" fill="#266FA8"/>
<path d="M26.2079 38.7687C26.2949 38.7778 26.3829 38.7778 26.4709 38.7687C26.5179 41.0346 26.5649 43.3044 26.6099 45.5781C26.3969 45.8742 26.1929 45.7409 26.0179 45.5484C23.6829 42.9175 21.3509 40.2845 19.0219 37.6496C20.9379 37.6496 22.7439 38.3187 24.6149 38.6089C25.1409 38.6985 25.6739 38.7519 26.2079 38.7687Z" fill="#90D4F0"/>
<path d="M21.1719 12.1561C20.6709 13.3404 19.4099 13.293 18.5069 13.7163C15.6179 15.0486 12.7989 16.5644 9.7289 17.4763L12.2369 12.1798L12.6039 12.1324L21.1719 12.1561Z" fill="#90D4F0"/>
<path d="M26.6069 45.5692C26.5619 43.3033 26.5149 41.0336 26.4679 38.7598L32.4219 36.0213C31.3649 38.3898 29.9109 40.5303 28.5729 42.7329C27.9989 43.7188 27.6729 44.9149 26.6069 45.5692Z" fill="#266FA8"/>
<path d="M42.2089 18.0388C42.2719 17.9401 42.3599 17.8604 42.4639 17.8082C42.5689 17.756 42.6849 17.7334 42.8019 17.7427C42.7439 17.8454 42.6559 17.9285 42.5509 17.9812C42.4449 18.034 42.3259 18.054 42.2089 18.0388Z" fill="#266FA8"/>
<path d="M14.3269 10.0215C15.8069 9.04754 17.3379 8.24522 19.1789 8.26003C24.4339 8.26003 29.6889 8.34588 34.9379 8.22154C35.8379 8.16787 36.7399 8.30349 37.5839 8.61965C38.4289 8.93581 39.1969 9.42549 39.8409 10.0571C39.8409 10.1479 39.8409 10.2387 39.8409 10.3294L35.9919 10.3502H16.1859C15.5469 10.3502 14.9009 10.3887 14.3269 10.0215Z" fill="#F4FAFD"/>
<path d="M14.3269 10.0215C14.9009 10.3887 15.5469 10.3472 16.1859 10.3472H35.9919V12.1443L36.0159 12.2094L26.4499 12.39C24.7089 11.866 22.9299 12.2331 21.1719 12.1591L12.5859 12.1384C12.9439 11.2443 12.9649 10.0808 14.3269 10.0215Z" fill="#E9F6FD"/>
<path d="M39.8409 10.3176C39.8409 10.2268 39.8409 10.136 39.8409 10.0452L39.9619 10.2465L39.8409 10.3176Z" fill="#E9F6FD"/>
<path d="M26.4499 12.39L36.0339 12.2153C36.0339 14.9627 36.0389 17.7092 36.0479 20.4546C35.3759 21.3221 34.3159 21.5323 33.4079 21.9793C31.3349 22.9948 29.2299 23.9303 27.1369 24.8984L26.5719 25.1945L26.4919 24.8599L26.4499 12.39Z" fill="#68C1EA"/>
</svg>
