<svg width="15" height="16" viewBox="0 0 15 16" fill="currentColor" xmlns="http://www.w3.org/2000/svg">
<path d="M10 0.75C10 0.551088 9.92098 0.360322 9.78033 0.21967C9.63968 0.0790176 9.44891 0 9.25 0L0.75 0C0.551088 0 0.360322 0.0790176 0.21967 0.21967C0.0790176 0.360322 0 0.551088 0 0.75L0 4.25C0 4.664 0.336 5 0.75 5H9.25C9.44891 5 9.63968 5.07902 9.78033 5.21967C9.92098 5.36032 10 5.55109 10 5.75V6.75C10 6.94891 9.92098 7.13968 9.78033 7.28033C9.63968 7.42098 9.44891 7.5 9.25 7.5H3.75C3.55109 7.5 3.36032 7.57902 3.21967 7.71967C3.07902 7.86032 3 8.05109 3 8.25V11.75C3 12.164 3.336 12.5 3.75 12.5H9.25C9.44891 12.5 9.63968 12.579 9.78033 12.7197C9.92098 12.8603 10 13.0511 10 13.25V15.25C10 15.665 10.336 16 10.75 16H14.25C14.4489 16 14.6397 15.921 14.7803 15.7803C14.921 15.6397 15 15.4489 15 15.25V11.75C15 11.5511 14.921 11.3603 14.7803 11.2197C14.6397 11.079 14.4489 11 14.25 11H10.75C10.5511 11 10.3603 10.921 10.2197 10.7803C10.079 10.6397 10 10.4489 10 10.25V9.25C10 9.05109 10.079 8.86032 10.2197 8.71967C10.3603 8.57902 10.5511 8.5 10.75 8.5H14.25C14.4489 8.5 14.6397 8.42098 14.7803 8.28033C14.921 8.13968 15 7.94891 15 7.75V4.25C15 4.05109 14.921 3.86032 14.7803 3.71967C14.6397 3.57902 14.4489 3.5 14.25 3.5H10.75C10.5511 3.5 10.3603 3.42098 10.2197 3.28033C10.079 3.13968 10 2.94891 10 2.75V0.75Z" fill="currentColor"/>
</svg>
