<svg xmlns="http://www.w3.org/2000/svg" viewBox="0 0 24 24">
  <title>SQL</title>
  <path d="M12 2C6.48 2 2 3.79 2 6v12c0 2.21 4.48 4 10 4s10-1.79 10-4V6c0-2.21-4.48-4-10-4zm0 2c4.42 0 8 1.34 8 2s-3.58 2-8 2-8-1.34-8-2 3.58-2 8-2zm0 16c-4.42 0-8-1.34-8-2v-2.22c1.73.88 4.51 1.47 8 1.47s6.27-.59 8-1.47V18c0 .66-3.58 2-8 2zm0-4c-4.42 0-8-1.34-8-2v-2.22c1.73.88 4.51 1.47 8 1.47s6.27-.59 8-1.47V14c0 .66-3.58 2-8 2zm0-4c-4.42 0-8-1.34-8-2V8.22c1.73.88 4.51 1.47 8 1.47s6.27-.59 8-1.47V10c0 .66-3.58 2-8 2z"/>
</svg>
