<svg width="200" height="48" viewBox="-5 0 250 50" fill="none" xmlns="http://www.w3.org/2000/svg">
<path d="M10.6362 41.1038C4.37369 41.1038 0 36.9221 0 30.9373C0 24.9525 4.37369 20.7708 10.6362 20.7708C12.8685 20.7708 14.7271 21.3061 16.4897 22.4576C16.9543 22.7556 17.0705 23.1798 16.8331 23.6899L16.6362 24.0586C16.4998 24.3111 16.323 24.4727 16.1008 24.5333C15.8736 24.599 15.621 24.5586 15.3534 24.4071C13.9392 23.5636 12.2675 23.1041 10.6362 23.1041C5.89892 23.1041 2.58583 26.3212 2.58583 30.9322C2.58583 35.5433 5.89387 38.7604 10.6362 38.7604C12.2675 38.7604 13.9392 38.3008 15.3483 37.4574C15.621 37.3059 15.8685 37.2655 16.0958 37.3312C16.318 37.3968 16.4948 37.5584 16.6311 37.8059L16.823 38.1645C17.1311 38.821 16.8836 39.1544 16.621 39.3261C14.8433 40.5331 12.9392 41.0988 10.6312 41.0988L10.6362 41.1038Z" fill="#1d1e1e"/>
<path d="M25.479 41.1041C21.3982 41.1041 18.0801 37.7961 18.0801 33.7304C18.0801 29.6648 21.3982 26.3315 25.479 26.3315C29.5597 26.3315 32.9385 29.6497 32.9385 33.7304C32.9385 37.8112 29.5951 41.1041 25.479 41.1041ZM25.479 28.584C22.777 28.584 20.5801 30.9072 20.5801 33.7557C20.5801 36.6041 22.777 38.8465 25.479 38.8465C28.181 38.8465 30.4335 36.5637 30.4335 33.7557C30.4335 30.9476 28.2113 28.584 25.479 28.584Z" fill="#1d1e1e"/>
<path d="M56.4245 40.801H55.7881C55.2225 40.801 54.8791 40.4525 54.8791 39.8667V32.791C54.8791 29.1294 52.8336 28.584 51.6114 28.584C51.2124 28.584 47.7276 28.7254 47.5711 33.7102V39.8667C47.5711 40.4424 47.2125 40.801 46.6367 40.801H46.0004C45.4499 40.801 45.0964 40.4323 45.0964 39.8667V32.791C45.0964 29.1294 43.0509 28.584 41.8287 28.584C41.4196 28.584 37.8187 28.7355 37.7884 33.9273V39.8667C37.7884 40.4424 37.4298 40.801 36.854 40.801H36.2177C35.6672 40.801 35.3086 40.4323 35.3086 39.8667V27.5688C35.3086 27.0082 35.6722 26.6345 36.2177 26.6345H36.854C37.4298 26.6345 37.7884 26.9931 37.7884 27.5688V28.8112C38.7833 26.9981 40.7025 26.3264 42.1873 26.3264C43.7681 26.3264 45.8287 26.8517 46.8994 29.2759C48.1822 26.7204 50.4498 26.3264 51.7225 26.3264C54.2932 26.3264 57.3538 27.4476 57.3538 32.7859V39.8616C57.3538 40.4374 56.9952 40.7959 56.4195 40.7959L56.4245 40.801Z" fill="#1d1e1e"/>
<path d="M81.7409 40.801H81.1046C80.5389 40.801 80.1955 40.4525 80.1955 39.8667V32.791C80.1955 29.1294 78.15 28.584 76.9278 28.584C76.5289 28.584 73.044 28.7254 72.8875 33.7102V39.8667C72.8875 40.4424 72.5289 40.801 71.9532 40.801H71.3168C70.7663 40.801 70.4128 40.4323 70.4128 39.8667V32.791C70.4128 29.1294 68.3673 28.584 67.1451 28.584C66.736 28.584 63.1351 28.7355 63.1048 33.9273V39.8667C63.1048 40.4424 62.7462 40.801 62.1704 40.801H61.5341C60.9836 40.801 60.625 40.4323 60.625 39.8667V27.5688C60.625 27.0082 60.9886 26.6345 61.5341 26.6345H62.1704C62.7462 26.6345 63.1048 26.9931 63.1048 27.5688V28.8112C64.0997 26.9981 66.0189 26.3264 67.5037 26.3264C69.0845 26.3264 71.1451 26.8517 72.2158 29.2759C73.4986 26.7204 75.7662 26.3264 77.0389 26.3264C79.6096 26.3264 82.6702 27.4476 82.6702 32.7859V39.8616C82.6702 40.4374 82.3116 40.7959 81.7359 40.7959L81.7409 40.801Z" fill="#1d1e1e"/>
<path d="M92.4536 41.1041C88.3728 41.1041 85.0547 37.7961 85.0547 33.7304C85.0547 29.6648 88.3728 26.3315 92.4536 26.3315C96.5343 26.3315 99.9131 29.6497 99.9131 33.7304C99.9131 37.8112 96.5697 41.1041 92.4536 41.1041ZM92.4536 28.584C89.7516 28.584 87.5547 30.9072 87.5547 33.7557C87.5547 36.6041 89.7516 38.8465 92.4536 38.8465C95.1556 38.8465 97.4081 36.5637 97.4081 33.7557C97.4081 30.9476 95.1859 28.584 92.4536 28.584Z" fill="#1d1e1e"/>
<path d="M114.115 40.8011H113.479C112.903 40.8011 112.545 40.4425 112.545 39.8667V32.7911C112.545 29.1295 110.479 28.584 109.252 28.584C107.711 28.584 104.797 29.7002 104.767 33.9274V39.8667C104.767 40.4425 104.408 40.8011 103.833 40.8011H103.196C102.646 40.8011 102.287 40.4324 102.287 39.8667V27.5689C102.287 27.0083 102.651 26.6346 103.196 26.6346H103.833C104.408 26.6346 104.767 26.9931 104.767 27.5689V28.8719C105.651 27.2861 107.353 26.3315 109.388 26.3315C111.09 26.3315 115.05 26.9628 115.05 32.7911V39.8667C115.05 40.4425 114.691 40.8011 114.115 40.8011Z" fill="#1d1e1e"/>
<path d="M124.377 41.1039C121.216 41.1039 118.564 39.5989 117.463 37.1848C117.312 36.8767 117.352 36.6444 117.413 36.503C117.514 36.2757 117.731 36.104 118.049 36.0131L118.721 35.8464C119.362 35.6898 119.66 36.0636 119.842 36.4121C120.468 37.5686 121.973 38.8009 124.322 38.8009C126.882 38.8009 128.665 37.4828 128.665 35.5888C128.665 33.6949 126.771 32.7606 125.64 32.3666L122.544 31.3162C119.579 30.3566 118.079 28.6344 118.079 26.19C118.079 22.6395 121.261 20.7759 124.403 20.7759C127.367 20.7759 129.655 22.185 130.524 24.5486C130.615 24.791 130.615 25.0284 130.514 25.2304C130.408 25.4475 130.195 25.6142 129.908 25.7051L129.322 25.8718C128.807 26.0334 128.423 25.8415 128.185 25.296C127.61 23.9072 126.221 23.1142 124.377 23.1142C122.534 23.1142 120.67 24.0587 120.67 26.1344C120.67 27.0334 120.973 28.1748 123.337 29.0233L126.458 30.1293C129.337 31.0535 131.2 33.1394 131.2 35.4474C131.2 38.8312 128.458 41.109 124.377 41.109V41.1039Z" fill="#1d1e1e"/>
<path d="M135.241 46.9929H134.604C134.054 46.9929 133.695 46.6242 133.695 46.0586V27.5689C133.695 27.0033 134.049 26.6346 134.604 26.6346H135.241C135.816 26.6346 136.175 26.9931 136.175 27.5689V28.9073C137.392 27.2406 139.215 26.3315 141.377 26.3315C145.488 26.3315 148.473 29.4426 148.473 33.7304C148.473 38.0183 145.498 41.1041 141.402 41.1041C139.215 41.1041 137.382 40.195 136.175 38.5284V46.0535C136.175 46.6293 135.816 46.9879 135.241 46.9879V46.9929ZM141.155 28.584C138.215 28.584 136.145 30.7002 136.12 33.7304C136.145 36.7405 138.215 38.8465 141.155 38.8465C144.478 38.8465 145.968 36.2759 145.968 33.7254C145.968 30.6951 143.988 28.579 141.155 28.579V28.584Z" fill="#1d1e1e"/>
<path d="M152.67 40.8008H152.034C151.458 40.8008 151.1 40.4422 151.1 39.8664V27.5686C151.1 27.008 151.473 26.6343 152.034 26.6343H152.67C153.221 26.6343 153.574 27.003 153.574 27.5686V39.8664C153.574 40.4321 153.221 40.8008 152.67 40.8008Z" fill="#1d1e1e"/>
<path d="M158.502 40.8008H157.866C157.316 40.8008 156.957 40.4321 156.957 39.8664V27.5686C156.957 27.008 157.321 26.6343 157.866 26.6343H158.502C159.078 26.6343 159.437 26.9929 159.437 27.5686V29.3009C160.174 27.6141 161.553 26.6343 163.285 26.6343C163.467 26.6343 163.78 26.6646 163.977 26.6898C164.639 26.8211 164.639 27.1595 164.639 27.4019V27.9827C164.639 28.3514 164.548 28.912 164.371 29.0433C164.275 29.114 164.103 29.1848 163.846 29.1039C163.629 29.0837 163.366 29.0585 163.154 29.0585C162.29 29.0585 159.477 29.5332 159.447 35.6695V39.8715C159.447 40.4472 159.088 40.8058 158.513 40.8058L158.502 40.8008Z" fill="#1d1e1e"/>
<path d="M168.165 40.8008H167.529C166.953 40.8008 166.595 40.4422 166.595 39.8664V27.5686C166.595 27.008 166.968 26.6343 167.529 26.6343H168.165C168.716 26.6343 169.074 27.003 169.074 27.5686V39.8664C169.074 40.4321 168.721 40.8008 168.165 40.8008Z" fill="#1d1e1e"/>
<path d="M180.498 26.6344H177.336V22.9678C177.336 22.4577 177.008 22.1445 176.483 22.1445H175.68C175.154 22.1445 174.826 22.4577 174.826 22.9678V26.6344H171.665C171.281 26.6344 171.033 26.8818 171.033 27.2657V28.0687C171.033 28.4626 171.271 28.7 171.665 28.7H174.826V39.8716C174.826 40.4372 175.185 40.8059 175.735 40.8059H176.422C176.973 40.8059 177.331 40.4372 177.331 39.8716V28.7H180.493C180.887 28.7 181.124 28.4626 181.124 28.0687V27.2657C181.124 26.8818 180.877 26.6344 180.493 26.6344H180.498Z" fill="#1d1e1e"/>
<path d="M191.396 14.978H192.245C193.518 14.978 194.77 15.2709 195.912 15.8365C196.508 16.1951 197.24 16.3466 198.028 16.1295C199.002 15.8567 199.77 15.0386 199.952 14.0436C200.27 12.3265 198.957 10.8315 197.3 10.8315C194.422 10.8315 191.72 13.8315 191.402 14.978H191.396Z" fill="url(#paint0_linear_7417_21759)"/>
<path d="M193.467 10.8972C193.138 10.973 192.815 11.0588 192.492 11.1598C191.861 11.3619 191.244 11.6144 190.654 11.9225C189.492 12.5285 188.431 13.3315 187.537 14.2861C186.593 15.2911 185.805 16.478 185.275 17.7557C184.669 19.2204 184.366 20.8365 184.33 22.4173C184.31 23.2607 184.376 24.1294 184.724 24.9021C185.234 26.0334 186.406 26.7203 187.644 26.6294C187.694 26.6294 187.75 26.6193 187.8 26.6142C189.457 26.4021 190.724 24.791 190.411 23.1193C190.295 22.4779 189.967 21.9072 189.714 21.3062C187.982 17.1901 190.164 12.3063 194.33 10.7659C194.376 10.7508 194.416 10.7356 194.462 10.7205C194.462 10.7205 193.79 10.8265 193.467 10.8972Z" fill="#BA4896"/>
<path d="M181.361 16.1547C181.689 16.079 182.013 15.9931 182.336 15.8921C182.967 15.6901 183.583 15.4376 184.174 15.1295C185.336 14.5234 186.396 13.7204 187.29 12.7659C188.235 11.7608 189.023 10.574 189.553 9.29622C190.159 7.83159 190.462 6.21545 190.497 4.63466C190.518 3.79123 190.452 2.92256 190.103 2.14984C189.593 1.01854 188.422 0.33168 187.184 0.422588C187.134 0.422588 187.078 0.43269 187.028 0.43774C185.371 0.649859 184.104 2.26095 184.417 3.93265C184.533 4.57405 184.861 5.14475 185.114 5.74576C186.846 9.86187 184.664 14.7457 180.498 16.286C180.452 16.3012 180.412 16.3163 180.366 16.3315C180.366 16.3315 181.038 16.2254 181.361 16.1547Z" fill="#BA4896"/>
<path d="M183.432 12.0738H182.584C181.311 12.0738 180.059 11.7809 178.917 11.2152C178.321 10.8567 177.589 10.7051 176.801 10.9223C175.826 11.195 175.059 12.0132 174.877 13.0081C174.559 14.7253 175.872 16.2202 177.528 16.2202C180.407 16.2202 183.109 13.2203 183.427 12.0738H183.432Z" fill="url(#paint1_linear_7417_21759)"/>
<defs>
<linearGradient id="paint0_linear_7417_21759" x1="198.326" y1="16.3214" x2="193.907" y2="11.9022" gradientUnits="userSpaceOnUse">
<stop offset="0.2" stop-color="#BA4896"/>
<stop offset="0.42" stop-color="#B64693"/>
<stop offset="0.61" stop-color="#AC418B"/>
<stop offset="0.77" stop-color="#9B387D"/>
<stop offset="0.93" stop-color="#842C6A"/>
<stop offset="1" stop-color="#76255F"/>
</linearGradient>
<linearGradient id="paint1_linear_7417_21759" x1="176.503" y1="10.7304" x2="180.922" y2="15.1495" gradientUnits="userSpaceOnUse">
<stop offset="0.2" stop-color="#BA4896"/>
<stop offset="0.43" stop-color="#B64693"/>
<stop offset="0.61" stop-color="#AC418B"/>
<stop offset="0.77" stop-color="#9B387D"/>
<stop offset="0.93" stop-color="#842C6A"/>
<stop offset="1" stop-color="#76255F"/>
</linearGradient>
</defs>
</svg>
