<svg width="532" height="532" viewBox="0 0 532 532" fill="none" xmlns="http://www.w3.org/2000/svg">
<g opacity="0.99">
<path d="M10 85C10 43.5786 43.5786 10 85 10H447C488.421 10 522 43.5786 522 85V447C522 488.421 488.421 522 447 522H85C43.5786 522 10 488.421 10 447V85Z" fill="black" fill-opacity="0.99"/>
<path d="M161.813 347.75V143H210.813V366.3L170.213 389.75H95.6635L55.0635 366.3V298.75H104.063V347.75H161.813Z" fill="#0403FF" fill-opacity="0.99"/>
<path d="M270.286 388V143H319.286V253.25H319.986L411.336 143H469.436L372.836 257.8L480.286 388H421.486L343.436 292.8L319.286 321.15V388H270.286Z" fill="#0403FF" fill-opacity="0.99"/>
<path d="M447 5H85C40.8172 5 5 40.8172 5 85V447C5 491.183 40.8172 527 85 527H447C491.183 527 527 491.183 527 447V85C527 40.8172 491.183 5 447 5Z" stroke="#0403FF" stroke-opacity="0.99" stroke-width="10"/>
</g>
</svg>
