<?xml version="1.0" encoding="UTF-8"?>
<svg version="1.1" xmlns="http://www.w3.org/2000/svg" width="205" height="130" 
viewBox="50 -30 120 220">
<path d="M0 0 C1.43706802 -0.01429802 1.43706802 -0.01429802 2.90316772 -0.02888489 C3.9272171 -0.02797348 4.95126648 -0.02706207 6.00634766 -0.02612305 C7.0702774 -0.03040817 8.13420715 -0.0346933 9.2303772 -0.03910828 C11.47795908 -0.04484364 13.72555952 -0.0453577 15.97314453 -0.04101562 C19.40120334 -0.03785948 22.82839571 -0.06131233 26.25634766 -0.08666992 C28.44384657 -0.08894345 30.6313478 -0.08964616 32.81884766 -0.08862305 C34.34884903 -0.10243767 34.34884903 -0.10243767 35.90975952 -0.11653137 C41.68606619 -0.07922187 46.13137243 0.08718491 51.04541016 3.2746582 C54.6409236 8.4250108 55.62837009 13.29898766 55.53125 19.4597168 C55.53504669 20.2348613 55.53884338 21.0100058 55.54275513 21.80863953 C55.55010754 24.34721587 55.52885008 26.88462267 55.50634766 29.4230957 C55.5039594 31.20374416 55.50305872 32.98439518 55.50357056 34.76504517 C55.50045135 38.48878873 55.4839575 42.21214491 55.45703125 45.93579102 C55.42310264 50.68549225 55.41540198 55.4347678 55.41692162 60.18457603 C55.41637504 63.85997507 55.40536113 67.5352829 55.39091873 71.2106514 C55.38459767 72.96076392 55.38062295 74.71088668 55.37913132 76.46100998 C55.35054748 92.47077394 54.16179852 107.77942866 42.85791016 120.2746582 C30.60243955 131.24887507 16.40698573 130.91946815 0.96777344 130.45825195 C-4.49549401 130.11502914 -9.07445493 128.81033307 -13.95458984 126.2746582 C-14.68033203 125.91243164 -15.40607422 125.55020508 -16.15380859 125.17700195 C-22.02990085 121.87519773 -28.16225164 117.20580892 -31.00537109 110.9699707 C-32.07709487 107.06442515 -32.1216782 104.80540945 -30.89208984 100.8996582 C-28.74214283 97.98682677 -27.28936824 96.67061195 -23.95458984 95.2746582 C-20.13810444 94.70624548 -18.40954398 95.02298145 -15.01708984 96.8996582 C-12.75270276 98.65571349 -10.64595042 100.43163791 -8.51708984 102.3371582 C-2.16595786 107.81656619 4.78183961 109.45627514 13.04541016 109.2746582 C19.5609471 108.22618099 24.58532897 106.16986927 29.04541016 101.2746582 C33.06042959 93.55626842 32.42696157 85.43863806 32.33837891 76.9621582 C32.33277561 75.38175867 32.32850898 73.80135389 32.32551575 72.22094727 C32.31412465 68.08462851 32.28470778 63.94863158 32.25140381 59.81243896 C32.22057841 55.58244173 32.2069839 51.35239191 32.19189453 47.12231445 C32.15983179 38.83961556 32.10870598 30.55717705 32.04541016 22.2746582 C30.91522461 22.25483887 29.78503906 22.23501953 28.62060547 22.21459961 C24.42344052 22.13846941 20.22661889 22.04976342 16.02978516 21.95727539 C14.21409895 21.91901629 12.39833774 21.88415803 10.58251953 21.8527832 C7.97091893 21.80706591 5.35983327 21.74908284 2.74853516 21.6887207 C1.53269745 21.67139389 1.53269745 21.67139389 0.29229736 21.65371704 C-6.86549562 21.46670105 -6.86549562 21.46670105 -9.95458984 19.2746582 C-13.10753734 15.33347383 -13.48714303 12.24515463 -12.95458984 7.2746582 C-11.60715836 4.0833731 -10.78156942 2.67656797 -7.65097046 1.15510559 C-4.92799039 0.2659727 -2.85203882 0.01567581 0 0 Z " fill="var(--text-color)" transform="translate(31.95458984375,-0.274658203125)"/>
<path d="M0 0 C2.42057754 1.85102988 2.9825199 2.75392845 3.46875 5.7265625 C3.7780534 10.72181238 3.54369942 13.83523415 0.1875 17.6875 C-1.14330488 19.02368187 -2.49928226 20.33510686 -3.875 21.625 C-5.37763852 23.12235683 -6.87757069 24.62243371 -8.375 26.125 C-9.0659375 26.7953125 -9.756875 27.465625 -10.46875 28.15625 C-12.39721279 30.13480274 -14.18466673 32.13646792 -15.9765625 34.234375 C-21.04720974 40.0823942 -26.65472007 45.40966382 -32.21191406 50.79052734 C-33.62448458 52.16082524 -35.0272407 53.54121763 -36.4296875 54.921875 C-37.25968262 55.72979492 -38.08967773 56.53771484 -38.94482422 57.37011719 C-40.84476157 59.58967466 -41.63460664 60.74369219 -41.875 63.625 C-39.88456959 68.03135138 -36.56701817 71.13746508 -33.125 74.4375 C-29.83308656 77.61487521 -26.66857216 80.8202398 -23.6953125 84.30078125 C-18.92721093 89.82163698 -13.68975212 94.88108622 -8.5 100 C-6.51014379 101.96326571 -4.52364065 103.92983831 -2.5390625 105.8984375 C-1.66717285 106.75872559 -0.7952832 107.61901367 0.10302734 108.50537109 C3.6095892 112.18129116 3.53542726 115.21202424 3.45703125 120.13671875 C3.125 122.625 3.125 122.625 1.1875 125.75 C-2.84758935 128.22046287 -6.25638479 128.72467029 -10.875 127.625 C-15.87448878 124.8250164 -19.35698182 121.21177124 -23.125 117 C-29.40662819 110.1136588 -35.9237092 103.50317594 -42.56933594 96.96826172 C-63.99766143 75.78507858 -63.99766143 75.78507858 -64.875 62.625 C-63.93881789 51.26599039 -56.62264885 44.02413395 -48.80932617 36.49316406 C-45.97618062 33.76219473 -43.28784543 30.99241841 -40.73046875 28 C-36.15602073 22.69963042 -31.20600787 17.76995812 -26.2578125 12.82250977 C-24.60907893 11.17155751 -22.96855209 9.51271692 -21.328125 7.85351562 C-20.27653016 6.7989918 -19.2244641 5.74493764 -18.171875 4.69140625 C-17.4405838 3.94933678 -17.4405838 3.94933678 -16.69451904 3.192276 C-11.80444326 -1.6649274 -6.45924073 -3.08920209 0 0 Z " fill="var(--text-color)" transform="translate(201.875,1.375)"/>
<path d="M0 0 C2.66546305 1.37849055 3.91049034 2.70663574 6 5 C6.89387193 8.2662171 7.12785314 11.35527703 7.14044189 14.73019409 C7.14900711 16.11366531 7.14900711 16.11366531 7.15774536 17.52508545 C7.15886322 18.52469299 7.15998108 19.52430054 7.16113281 20.55419922 C7.16609772 21.61657806 7.17106262 22.67895691 7.17617798 23.77352905 C7.19076927 27.28392181 7.19759598 30.79426941 7.203125 34.3046875 C7.2088782 36.74699912 7.21463592 39.18931072 7.22039795 41.63162231 C7.23089879 46.75099905 7.23674771 51.87036011 7.24023438 56.98974609 C7.24572227 63.54574955 7.26976072 70.10154566 7.29820633 76.65748405 C7.3168381 81.70183924 7.32203857 86.74614447 7.32357025 91.79053116 C7.32659522 94.20742046 7.33461845 96.62430891 7.34775543 99.0411644 C7.36482945 102.42327385 7.36293227 105.80487653 7.35644531 109.18701172 C7.3656601 110.1825708 7.37487488 111.17812988 7.3843689 112.20385742 C7.35019863 117.8974389 6.82101869 122.00384075 4 127 C-0.23552856 129.82368571 -4.02477314 129.66653757 -9 129 C-11.93423195 127.20353146 -13.47205355 126.0558929 -15 123 C-15.10082993 121.45296073 -15.13941737 119.90166639 -15.14717102 118.35136414 C-15.15432632 117.37138458 -15.16148163 116.39140503 -15.16885376 115.38172913 C-15.17154266 114.30273849 -15.17423157 113.22374786 -15.17700195 112.11206055 C-15.18357315 110.9786322 -15.19014435 109.84520386 -15.19691467 108.6774292 C-15.21668071 104.91385844 -15.22831705 101.15032763 -15.23828125 97.38671875 C-15.24235678 96.10398386 -15.2464323 94.82124897 -15.25063133 93.49964333 C-15.26935111 87.41223672 -15.28391433 81.32485022 -15.2922433 75.23742074 C-15.30201551 68.21119572 -15.32833399 61.18528576 -15.36874419 54.15917176 C-15.40254469 48.0733679 -15.41438844 41.9876965 -15.41844749 35.90180397 C-15.42332803 33.31299515 -15.43498338 30.72419004 -15.45348549 28.13544273 C-15.47775193 24.51541235 -15.47693438 20.89620933 -15.4699707 17.27612305 C-15.48278076 16.20320511 -15.49559082 15.13028717 -15.50878906 14.02485657 C-15.45790204 6.78118636 -15.45790204 6.78118636 -13.15812683 2.85774231 C-9.33556352 -0.43276754 -4.86799573 -0.81745589 0 0 Z " fill="var(--text-color)" transform="translate(124,0)"/>
</svg>
